<svg width="1501" height="2142" viewBox="0 0 1501 2142" fill="none" xmlns="http://www.w3.org/2000/svg">
<path d="M407.983 50C635.994 50 864.006 50 1092.02 50C1093.09 50.2807 1094.17 50.6782 1095.27 50.8186C1109.59 52.5493 1124.04 53.5082 1138.22 56.0808C1213.82 69.786 1279.75 102.973 1334.72 156.671C1402.11 222.484 1439.8 302.704 1448.2 396.559C1448.81 403.272 1449.39 409.984 1450 416.696V442.61C1449.7 444.2 1449.35 445.767 1449.13 447.357C1446.63 466.582 1445.58 486.134 1441.46 505.008C1419.05 607.75 1363.54 688.017 1275.58 745.832C1274.13 746.79 1272.7 747.82 1271.3 748.778C1271.77 749.527 1271.89 749.878 1272.14 750.065C1273.5 751.024 1274.88 751.959 1276.28 752.848C1301.6 769.056 1324.66 788 1345.22 809.867C1405.6 874.066 1439.99 950.03 1448.2 1037.8C1448.76 1043.7 1449.42 1049.57 1450.02 1055.46V1083.36C1449.74 1084.44 1449.35 1085.49 1449.23 1086.59C1447.15 1104.69 1446.33 1123.05 1442.87 1140.9C1425.3 1231.59 1380.94 1307 1308.64 1364.51C1221.12 1434.13 1121.09 1460.4 1010.45 1443C936.126 1431.33 871.258 1399.17 815.746 1348.32C813.032 1345.82 810.272 1343.36 806.763 1340.21V1347.32C806.763 1468.21 806.716 1589.12 806.81 1710.01C806.81 1739.18 803.956 1768.02 797.359 1796.43C780.657 1868.26 746.526 1930.47 693.798 1982.18C631.058 2043.69 555.593 2079.03 468.407 2088.61C393.783 2096.82 322.201 2084.26 256.092 2048.86C134.215 1983.6 66.3517 1881.26 51.848 1743.79C51.1229 1736.91 50.6082 1729.99 50 1723.11C50 1716.14 50 1709.17 50 1702.18C50.2807 1701.27 50.772 1700.38 50.7954 1699.47C51.427 1674.3 54.9827 1649.53 60.9947 1625.14C84.7854 1528.85 138.098 1453.17 220.278 1397.69C223.085 1395.8 225.939 1393.93 229.167 1391.78C227.506 1390.56 226.5 1389.74 225.401 1389.06C204.674 1375.99 185.492 1360.93 167.877 1343.93C99.3826 1277.79 60.714 1197.31 51.8247 1102.54C51.2164 1095.78 50.6082 1089.07 50 1082.36C50 1075.06 50 1067.74 50 1060.44C50.2807 1059.16 50.6784 1057.89 50.7954 1056.61C52.2223 1041.76 52.9241 1026.81 55.0997 1012.08C61.7901 966.775 76.8318 924.21 99.3826 884.404C129.723 830.823 170.942 787.345 222.57 753.76C224.699 752.38 226.711 750.813 229.167 749.059C226.968 747.586 225.471 746.557 223.974 745.551C122.121 677.493 64.7376 582.562 51.8247 460.805C51.193 454.748 50.6082 448.667 50 442.61C50 433.98 50 425.326 50 416.696C50.2807 415.41 50.6784 414.147 50.7954 412.861C52.1989 398.337 52.8072 383.719 55.0295 369.336C63.7551 312.878 84.2707 260.91 116.764 213.878C154.824 158.776 204.043 116.515 264.49 87.4437C301.732 69.5054 340.892 57.9986 381.923 52.9235C390.602 51.8476 399.281 50.9823 407.96 50L407.983 50ZM693.05 163.477C690.547 163.477 688.418 163.477 686.289 163.477C601.56 163.477 516.807 163.454 432.078 163.477C355.559 163.501 289.965 190.28 237.144 245.662C184.861 300.459 160.508 366.553 164.438 442.165C168.018 511.136 195.247 570.096 244.957 618.088C294.971 666.36 355.395 691.362 424.779 692.133C512.339 693.116 599.899 692.367 687.482 692.367H693.05V163.477ZM806.927 692.391H812.401C899.961 692.391 987.521 692.484 1075.1 692.274C1086.85 692.25 1098.73 691.315 1110.33 689.467C1175.88 679.036 1231.04 649.264 1273.69 598.232C1324.5 537.424 1344.33 467.097 1333.13 388.748C1324.59 329.039 1297.74 278.1 1253.92 236.564C1204.3 189.555 1144.89 164.553 1076.58 163.758C988.527 162.705 900.452 163.501 812.401 163.524C810.646 163.524 808.892 163.664 806.974 163.758V692.414L806.927 692.391ZM693.097 805.938H687.646C601.396 805.938 515.17 805.891 428.92 806.008C419.469 806.008 409.948 806.382 400.567 807.482C336.096 815.012 280.702 841.441 236.325 889.035C179.995 949.445 156.017 1021.41 166.123 1103.22C182.545 1236.27 294.503 1334.43 428.522 1334.83C514.936 1335.09 601.326 1334.87 687.74 1334.87C689.494 1334.87 691.225 1334.71 693.073 1334.62V805.938H693.097ZM693.307 1448.42C690.734 1448.42 688.605 1448.42 686.5 1448.42C600.25 1448.42 514.023 1448.38 427.773 1448.45C408.287 1448.45 388.964 1450.39 369.993 1454.99C285.521 1475.55 223.436 1524.64 187.621 1603.72C150.473 1685.74 154.333 1768.04 199.809 1845.62C248.466 1928.6 323.16 1972.96 419.516 1976.75C503.052 1980.05 573.114 1948.52 628.298 1885.89C672.511 1835.7 693.167 1776.18 693.26 1709.48C693.377 1624.46 693.284 1539.42 693.284 1454.41C693.284 1452.61 693.284 1450.83 693.284 1448.4L693.307 1448.42ZM1335.94 1070.76C1335.94 924.397 1218.22 806.125 1071.81 806.008C926.301 805.891 808.12 922.011 807.114 1067.58C806.085 1216.28 924.406 1335.02 1071.6 1334.87C1217.54 1334.73 1335.94 1216.46 1335.94 1070.76Z" fill="black" stroke="black" stroke-width="100"/>
</svg>
